PathFileType  4	(X/Y/Z) C:\Users\antoi\Documents\MyRepositories\mobilecap\ResultsAnalysis
DataRate	CameraRate	NumFrames	NumMarkers	Units	OrigDataRate	OrigDataStartFrame	OrigNumFrames
100.0	100.0	4	51	mm	100.0	212	242
Frame#	Time	r_knee			r_shank_antsup			r_ankle			r_calc			r_5meta			r_toe			L_knee			L_shank_antsup			L_ankle			L_calc			L_5meta			L_toe			r_sh2			r_sh3			r_sh4			L_sh2			L_sh3			r_thigh1			r_thigh2			r_thigh3			r_thigh4			r_thigh5			L_thigh1			L_thigh2			L_thigh3			L_thigh4			r.ASIS			r.PSIS			L.ASIS			L.PSIS			C7			R_Shoulder			L_Shoulder			R_Sternum			L_Sternum			R_humerus			R_elbow_med			R_elbow_lat			R_forearm			R_wrist_radius			R_wrist_ulna			L_humerus			L_elbow_med			L_elbow_lat			L_forearm			L_wrist_radius			L_wrist_ulna			R_HJC			L_HJC			R_HJC_reg			L_HJC_reg			
		X1	Y1	Z1	X2	Y2	Z2	X3	Y3	Z3	X4	Y4	Z4	X5	Y5	Z5	X6	Y6	Z6	X7	Y7	Z7	X8	Y8	Z8	X9	Y9	Z9	X10	Y10	Z10	X11	Y11	Z11	X12	Y12	Z12	X13	Y13	Z13	X14	Y14	Z14	X15	Y15	Z15	X16	Y16	Z16	X17	Y17	Z17	X18	Y18	Z18	X19	Y19	Z19	X20	Y20	Z20	X21	Y21	Z21	X22	Y22	Z22	X23	Y23	Z23	X24	Y24	Z24	X25	Y25	Z25	X26	Y26	Z26	X27	Y27	Z27	X28	Y28	Z28	X29	Y29	Z29	X30	Y30	Z30	X31	Y31	Z31	X32	Y32	Z32	X33	Y33	Z33	X34	Y34	Z34	X35	Y35	Z35	X36	Y36	Z36	X37	Y37	Z37	X38	Y38	Z38	X39	Y39	Z39	X40	Y40	Z40	X41	Y41	Z41	X42	Y42	Z42	X43	Y43	Z43	X44	Y44	Z44	X45	Y45	Z45	X46	Y46	Z46	X47	Y47	Z47	X48	Y48	Z48	X49	Y49	Z49	X50	Y50	Z50	X51	Y51	Z51	

212	2.11000000	-257.51041	789.26052	-363.01203	-224.44444	695.39044	-355.69545	-308.83421	379.40131	-352.65608	-359.17335	400.53665	-415.72567	-262.06912	248.29684	-325.23198	-202.35577	259.87197	-358.13161	-223.76885	806.23195	-734.78404	-182.57161	725.31385	-740.26562	-237.19234	391.84497	-763.66764	-301.50329	376.75763	-696.54212	-170.58217	286.96997	-812.20396	-103.99218	299.21977	-776.74844	-231.41391	582.33984	-348.69869	-293.87913	701.11435	-325.79833	-307.45427	588.23322	-316.96275	-269.71361	739.36929	-761.30987	-272.80980	618.26123	-779.16989	-209.36406	1070.73995	-358.57749	-199.48302	959.92090	-364.67945	-252.41629	929.06662	-336.19836	-321.84443	1056.39332	-349.92173	-303.29319	941.68200	-356.84428	-179.42903	1060.10388	-730.08869	-150.96705	922.33938	-724.43224	-284.55737	1039.10674	-754.66433	-258.01384	908.74001	-742.45443	-185.33764	1273.35528	-423.23880	-378.96043	1300.59895	-497.49015	-183.39294	1285.46548	-668.07626	-377.88577	1307.01166	-589.63088	-386.71213	1753.37919	-540.44152	-320.93344	1791.10205	-425.22375	-329.12764	1772.40892	-647.22164	-241.34503	1719.64577	-514.49201	-240.02807	1723.30972	-557.96804	-258.16396	1847.82196	-376.84051	-79.37473	1871.73096	-255.89972	-130.41830	1910.14876	-226.89912	-119.44988	1989.53011	-276.74518	-41.64081	2094.10699	-383.70028	-30.38564	2112.10240	-335.90540	-268.46316	1831.50627	-700.86535	-96.31996	1871.61772	-810.92864	-156.69201	1923.98591	-822.51339	-135.96078	1982.23563	-775.60238	-28.09558	2088.84644	-679.63340	-41.30685	2113.48133	-724.60079	-258.49324	1183.52109	-448.35175	-257.40989	1194.51184	-637.59228	-251.36676	1196.00907	-463.82577	-249.48747	1207.25139	-625.22204	
213	2.12000000	-257.79676	786.60812	-362.63067	-224.79234	692.32406	-355.95137	-312.82683	377.27404	-352.39012	-363.40688	398.90074	-414.72069	-267.23537	245.97969	-324.34060	-207.52034	256.94421	-357.59972	-225.15138	803.37601	-733.98202	-183.97648	721.70772	-738.74128	-243.91441	389.53461	-762.48318	-308.29244	375.16327	-694.98951	-179.11761	284.04658	-811.56286	-112.31701	294.93195	-776.01358	-233.00033	579.44186	-348.75307	-293.67467	698.92651	-324.89320	-308.53685	586.23205	-315.71990	-270.59220	736.94458	-761.25468	-274.96692	616.01473	-779.22036	-208.86297	1068.19080	-358.54832	-199.43493	957.31017	-364.18024	-252.44574	926.59780	-335.78444	-321.34163	1054.25552	-349.31518	-303.33497	939.58535	-356.15118	-178.78425	1057.05259	-729.35139	-151.62845	919.00322	-723.45456	-283.91422	1037.06379	-754.48521	-258.69923	906.34854	-741.87672	-185.84084	1271.96343	-422.33070	-378.68318	1300.22243	-497.06066	-182.95512	1284.02266	-666.75372	-377.27396	1306.50163	-589.66427	-390.66083	1749.98227	-540.14455	-325.50427	1788.20829	-424.87777	-333.27086	1769.23118	-646.79051	-244.94760	1717.17972	-513.80967	-243.69009	1720.86397	-557.70912	-260.68847	1844.59595	-377.37791	-82.87859	1868.71780	-255.08109	-134.10542	1907.32763	-226.05861	-124.02328	1986.05917	-276.53194	-48.29903	2090.29533	-384.35746	-36.47775	2108.53607	-336.97199	-272.37763	1828.42397	-701.70941	-101.90905	1867.51096	-814.58320	-162.60904	1920.14442	-825.25482	-141.67101	1977.79073	-778.17440	-34.72519	2083.99878	-681.36220	-47.64661	2108.71424	-725.95008	-259.25280	1182.50678	-447.56506	-257.32778	1193.42432	-636.80292	-252.07003	1195.27598	-462.90790	-249.62154	1206.20509	-624.04385	
214	2.13000000	-258.13587	783.09596	-362.22383	-225.08059	688.36581	-356.23425	-316.40140	373.98405	-352.37074	-367.59700	396.42994	-413.46157	-272.13170	242.77719	-323.71193	-212.53814	253.09264	-357.44506	-226.77822	799.52107	-733.01188	-185.45565	717.13277	-737.09509	-250.90512	386.35785	-761.07704	-315.52562	372.94480	-693.53765	-187.95921	280.14984	-810.35793	-121.01431	289.59381	-774.64239	-234.54476	575.72888	-348.83122	-293.29201	695.73347	-324.27490	-309.56369	583.29223	-314.72217	-271.48759	733.75809	-761.26366	-277.48650	612.87734	-779.03771	-208.34123	1064.65387	-358.15846	-199.43332	953.61199	-363.74885	-252.55728	923.16788	-335.38742	-320.72900	1051.18428	-348.85686	-303.40422	936.43840	-355.59910	-178.22234	1052.88744	-728.59318	-152.49656	914.63324	-722.65567	-283.36956	1033.95731	-753.95346	-259.56208	902.99387	-741.24376	-186.22656	1269.43920	-421.51102	-378.59325	1299.27525	-497.07327	-182.77412	1281.62969	-665.93508	-376.63492	1304.79177	-589.73176	-394.63365	1745.26712	-539.61568	-330.01879	1784.16980	-424.21500	-337.48161	1765.00018	-646.27701	-248.53267	1713.70894	-513.07824	-247.16227	1717.57248	-557.11726	-264.28395	1840.80619	-377.10514	-86.64434	1864.45322	-254.36037	-138.11364	1903.31279	-224.87087	-128.89877	1981.27150	-276.46048	-55.22161	2085.18564	-385.06323	-42.84448	2103.57689	-338.12083	-276.31611	1824.17063	-701.99007	-107.34245	1862.15862	-817.98035	-168.34814	1914.90168	-828.18601	-147.38294	1972.00395	-781.03976	-41.77490	2077.93382	-682.71750	-54.67796	2102.62405	-727.20783	-260.10930	1180.54025	-447.03752	-257.46263	1191.33303	-636.27399	-253.45245	1194.23314	-461.78234	-250.04410	1203.83127	-622.99363	
215	2.14000000	-258.25940	779.13658	-361.64999	-225.33974	683.63514	-356.41574	-319.94272	369.89282	-352.00254	-371.75521	393.04360	-412.07911	-276.65655	238.52527	-323.50194	-217.37940	248.42157	-357.62883	-228.24856	794.76956	-732.17812	-186.99040	711.60305	-735.34276	-258.09910	382.39183	-759.49228	-323.47977	370.17227	-692.54858	-196.92663	275.20404	-808.62051	-129.99491	283.24007	-772.34397	-236.02076	571.00334	-348.96655	-292.93291	691.58222	-323.85406	-310.48038	579.41894	-314.08962	-272.30526	729.84558	-761.27652	-280.25577	608.97800	-778.68369	-207.73665	1059.99936	-357.64708	-199.29692	948.93734	-363.55733	-252.56761	918.78526	-335.02801	-320.06735	1047.10532	-348.43750	-303.31578	932.15269	-355.14124	-177.69216	1047.74826	-727.46818	-153.29417	909.38430	-721.77870	-282.97604	1029.82212	-752.99899	-260.40305	898.70147	-740.58014	-186.50097	1265.76249	-420.76667	-378.74830	1297.29501	-497.36767	-182.84206	1278.18865	-665.42872	-376.25989	1301.94077	-589.48982	-398.47823	1739.32617	-538.90833	-334.40852	1778.92081	-423.68748	-341.57585	1759.71346	-645.72256	-251.98656	1709.29137	-512.42868	-250.70481	1713.13755	-556.59313	-268.45793	1836.19290	-376.51038	-90.77086	1858.79994	-253.50390	-142.40579	1897.91530	-223.36108	-134.05824	1975.14702	-276.37778	-62.39306	2078.76968	-385.83646	-49.42581	2097.29154	-339.38524	-280.17490	1818.79745	-701.86272	-112.52856	1855.54536	-821.21653	-173.81403	1908.20932	-831.28520	-153.14633	1964.92940	-784.01445	-49.26214	2070.59104	-683.91882	-61.91858	2095.25546	-728.44031	-261.01047	1177.46537	-446.65107	-257.86312	1188.17200	-635.88491	-255.00020	1192.14344	-460.72716	-250.63550	1200.28204	-622.16716	
